<?xml version="1.0" encoding="UTF-8" standalone="no"?>
<!DOCTYPE svg PUBLIC "-//W3C//DTD SVG 1.1//EN" "http://www.w3.org/Graphics/SVG/1.1/DTD/svg11.dtd">
<svg width="100%" height="100%" viewBox="0 0 1000 1000" version="1.1" xmlns="http://www.w3.org/2000/svg" xmlns:xlink="http://www.w3.org/1999/xlink" xml:space="preserve" xmlns:serif="http://www.serif.com/" style="fill-rule:evenodd;clip-rule:evenodd;stroke-linejoin:round;stroke-miterlimit:1.41421;">
    <rect x="0" y="0" width="1000" height="1000" style="fill:rgb(255,65,54);"/>
    <g transform="matrix(1.66549,0,0,1.66549,637.508,110.495)">
        <path d="M217.648,482L217.648,512L165,512C90.563,512 30,451.438 30,377L30,230.211C30,199.078 47.844,171.281 73.734,158.918L46.73,89.957C46.152,89.977 45.578,90 45,90C20.188,90 0,69.813 0,45C0,20.188 20.188,0 45,0C69.813,0 90,20.188 90,45C90,58.488 84.027,70.598 74.602,78.852L103.258,152.039C104.422,152.012 105.582,152.012 106.738,152.043L135.402,78.852C125.973,70.598 120,58.488 120,45C120,20.188 140.188,0 165,0C189.813,0 210,20.188 210,45C210,69.813 189.813,90 165,90C164.422,90 163.844,89.977 163.27,89.957L136.293,158.848C162.563,170.879 180,197.289 180,227C180,227 180,307.23 180,347C180,386.77 217.648,389.621 217.648,389.621L217.648,421.637C179.73,417.93 150,385.875 150,347L150,227C150,199.836 125.844,177.988 97.332,182.629C76.051,186.09 60,206.547 60,230.211L60,377C60,434.898 107.102,482 165,482L217.648,482Z" style="fill:white;fill-rule:nonzero;"/>
    </g>
    <g transform="matrix(1,0,0,1,-322.992,-279.703)">
        <path d="M625.824,845.947C488.148,845.947 376.373,731.991 376.373,591.628C376.373,451.266 488.148,337.309 625.824,337.309C763.499,337.309 875.275,451.266 875.275,591.628C875.275,615.066 872.097,638.391 865.831,660.941L1000,778.152L826.871,742.177C779.872,807.415 705.219,845.947 625.824,845.947ZM626.099,687.445C611.781,687.445 599.758,692.309 590.03,702.038C580.301,711.767 575.437,723.79 575.437,738.107C575.437,752.425 580.301,764.356 590.03,773.901C599.758,783.446 611.781,788.218 626.099,788.218C640.049,788.218 651.889,783.446 661.617,773.901C671.346,764.356 676.21,752.425 676.21,738.107C676.21,723.79 671.346,711.767 661.617,702.038C651.889,692.309 640.049,687.445 626.099,687.445ZM676.21,395.038L575.988,395.038L587.001,651.651L665.197,673.678L676.21,395.038Z" style="fill:white;"/>
    </g>
</svg>
