<?xml version="1.0" encoding="UTF-8" standalone="no"?><!DOCTYPE svg PUBLIC "-//W3C//DTD SVG 1.1//EN" "http://www.w3.org/Graphics/SVG/1.1/DTD/svg11.dtd"><svg width="100%" height="100%" viewBox="0 0 1000 1001" version="1.1" xmlns="http://www.w3.org/2000/svg" xmlns:xlink="http://www.w3.org/1999/xlink" xml:space="preserve" xmlns:serif="http://www.serif.com/" style="fill-rule:evenodd;clip-rule:evenodd;stroke-linejoin:round;stroke-miterlimit:2;"><rect id="Slug-Alert" serif:id="Slug Alert" x="0" y="0.656" width="1000" height="1000" style="fill:none;"/><path d="M995,401.656c0,-218.558 -177.442,-396 -396,-396l-198,0c-218.558,0 -396,177.442 -396,396l0,198c0,218.559 177.442,396 396,396l198,0c218.558,0 396,-177.441 396,-396l0,-198Z" style="fill:url(#_Linear1);"/><path d="M324.508,595.856c-110.85,0 -200.846,-91.752 -200.846,-204.766c0,-113.013 89.996,-204.765 200.846,-204.765c110.85,0 200.846,91.752 200.846,204.765c0,18.871 -2.559,37.651 -7.604,55.808l108.027,94.372l-139.395,-28.965c-37.842,52.526 -97.949,83.551 -161.874,83.551Zm0.222,-127.619c-11.529,0 -21.209,3.917 -29.041,11.75c-7.834,7.833 -11.75,17.514 -11.75,29.041c0,11.528 3.916,21.134 11.75,28.82c7.832,7.685 17.512,11.527 29.041,11.527c11.232,0 20.765,-3.842 28.597,-11.527c7.833,-7.686 11.75,-17.292 11.75,-28.82c0,-11.527 -3.917,-21.208 -11.75,-29.041c-7.832,-7.833 -17.365,-11.75 -28.597,-11.75Zm40.347,-235.432l-80.694,0l8.867,206.613l62.959,17.735l8.868,-224.348Z" style="fill:#fff;"/><path d="M734.734,896.584c-59.536,-29.682 -100.532,-91.209 -100.532,-162.129l0,-196.84c0,-41.748 23.929,-79.023 58.647,-95.602l-36.212,-92.475c-0.775,0.027 -1.545,0.058 -2.32,0.058c-33.272,0 -60.344,-27.07 -60.344,-60.344c0,-33.272 27.072,-60.344 60.344,-60.344c33.274,0 60.344,27.072 60.344,60.344c0,18.087 -8.01,34.326 -20.648,45.395l38.426,98.142c1.561,-0.037 3.117,-0.037 4.667,0.005l38.438,-98.147c-12.644,-11.069 -20.654,-27.308 -20.654,-45.395c0,-33.272 27.072,-60.344 60.344,-60.344c33.273,0 60.344,27.072 60.344,60.344c0,33.274 -27.071,60.344 -60.344,60.344c-0.775,0 -1.55,-0.031 -2.32,-0.058l-36.176,92.381c35.228,16.133 58.61,51.549 58.61,91.39l0,160.917c0,53.33 50.485,57.153 50.485,57.153l0,3.38c-6.773,12.045 -14.252,23.642 -22.379,34.734c-39.693,-13.466 -68.335,-51.081 -68.335,-95.267l0,-160.917c0,-36.426 -32.392,-65.724 -70.626,-59.5c-28.537,4.641 -50.061,32.073 -50.061,63.806l0,196.84c0,65.317 44.704,120.388 105.124,136.223c-14.213,9.71 -29.19,18.382 -44.822,25.906Z" style="fill:#fff;fill-rule:nonzero;"/><defs><linearGradient id="_Linear1" x1="0" y1="0" x2="1" y2="0" gradientUnits="userSpaceOnUse" gradientTransform="matrix(983.882,983.882,-983.882,983.882,0.271723,4.71261)"><stop offset="0" style="stop-color:#ff4136;stop-opacity:1"/><stop offset="1" style="stop-color:#ef0b00;stop-opacity:1"/></linearGradient></defs></svg>