<?xml version="1.0" encoding="UTF-8" standalone="no"?><!DOCTYPE svg PUBLIC "-//W3C//DTD SVG 1.1//EN" "http://www.w3.org/Graphics/SVG/1.1/DTD/svg11.dtd"><svg width="100%" height="100%" viewBox="0 0 1001 1001" version="1.1" xmlns="http://www.w3.org/2000/svg" xmlns:xlink="http://www.w3.org/1999/xlink" xml:space="preserve" xmlns:serif="http://www.serif.com/" style="fill-rule:evenodd;clip-rule:evenodd;stroke-linejoin:round;stroke-miterlimit:2;"><rect id="Slug-Alert" serif:id="Slug Alert" x="0.109" y="0.656" width="1000" height="1000" style="fill:none;"/><path d="M995.109,401.656c0,-218.558 -177.441,-396 -396,-396l-198,0c-218.558,0 -396,177.442 -396,396l0,198c0,218.559 177.442,396 396,396l198,0c218.559,0 396,-177.441 396,-396l0,-198Z"/><path d="M324.618,595.856c-110.851,0 -200.846,-91.752 -200.846,-204.766c0,-113.013 89.995,-204.765 200.846,-204.765c110.849,0 200.846,91.752 200.846,204.765c0,18.871 -2.559,37.651 -7.604,55.808l108.026,94.372l-139.395,-28.965c-37.841,52.526 -97.948,83.551 -161.873,83.551Zm0.221,-127.619c-11.528,0 -21.209,3.917 -29.041,11.75c-7.833,7.833 -11.75,17.514 -11.75,29.041c0,11.528 3.917,21.134 11.75,28.82c7.832,7.685 17.513,11.527 29.041,11.527c11.232,0 20.765,-3.842 28.597,-11.527c7.834,-7.686 11.75,-17.292 11.75,-28.82c0,-11.527 -3.916,-21.208 -11.75,-29.041c-7.832,-7.833 -17.365,-11.75 -28.597,-11.75Zm40.347,-235.432l-80.694,0l8.867,206.613l62.96,17.735l8.867,-224.348Z" style="fill:#fff;"/><path d="M734.844,896.584c-59.537,-29.682 -100.532,-91.209 -100.532,-162.129l0,-196.84c0,-41.748 23.928,-79.023 58.646,-95.602l-36.212,-92.475c-0.775,0.027 -1.545,0.058 -2.32,0.058c-33.272,0 -60.343,-27.07 -60.343,-60.344c0,-33.272 27.071,-60.344 60.343,-60.344c33.274,0 60.344,27.072 60.344,60.344c0,18.087 -8.009,34.326 -20.648,45.395l38.427,98.142c1.561,-0.037 3.116,-0.037 4.666,0.005l38.438,-98.147c-12.644,-11.069 -20.654,-27.308 -20.654,-45.395c0,-33.272 27.072,-60.344 60.344,-60.344c33.274,0 60.344,27.072 60.344,60.344c0,33.274 -27.07,60.344 -60.344,60.344c-0.775,0 -1.55,-0.031 -2.32,-0.058l-36.175,92.381c35.227,16.133 58.61,51.549 58.61,91.39l0,160.917c0,53.33 50.485,57.153 50.485,57.153l0,3.38c-6.774,12.045 -14.252,23.642 -22.379,34.734c-39.694,-13.466 -68.335,-51.081 -68.335,-95.267l0,-160.917c0,-36.426 -32.393,-65.724 -70.627,-59.5c-28.537,4.641 -50.061,32.073 -50.061,63.806l0,196.84c0,65.317 44.704,120.388 105.124,136.223c-14.212,9.71 -29.189,18.382 -44.821,25.906Z" style="fill:#fff;fill-rule:nonzero;"/></svg>